<svg xmlns="http://www.w3.org/2000/svg" xmlns:xlink="http://www.w3.org/1999/xlink" width="256" height="108"><defs><path id="a" d="M1.883 5.313c-6.662 8.668 6.121 40.33 10.988 44.512 1.374 1.18 5.88 2.028 11.774 2.549l.528.045.636.052q.395.03.8.06l.523.038q.42.03.85.056l.722.044.427.025.702.038.678.034.798.037.633.026.77.03.722.025.646.02.809.023 1.316.03.955.016.635.01.665.007.844.006.857.004 1.288-.001.782-.004.773-.007.83-.01.648-.01.72-.014.756-.016.697-.018.697-.02.928-.03.524-.02.859-.034.636-.027q.402-.019.8-.039l.582-.03.625-.034.682-.04.677-.043q.994-.066 1.947-.142l.674-.055.584-.051.77-.073.595-.06.402-.042c4.451-.479 7.823-1.166 9.173-2.059 5.882-3.887 15.028-29.615 11.34-40.41C75.46-1.087 8.544-3.356 1.882 5.312"/></defs><g fill="none" fill-rule="evenodd"><ellipse cx="128" cy="95" fill="#E5E7EA" rx="70" ry="3"/><g transform="translate(35 28)"><mask id="b" fill="#fff"><use xlink:href="#a"/></mask><path fill="#FFF" d="M28-3h16L20 55H4zM47-3h3L26 55h-3z" mask="url(#b)"/></g><path fill="#075885" d="M111.587 70.17c-2.258 5.064-4.79 8.933-7.138 10.49-3.407 2.258-15.155 3.381-29.388 3.339l-.791-.004-.805-.006c-5.758-.058-11.242-.33-15.688-.794l-.302-.032c-5.82-.626-9.544-1.496-11.294-3.004-1.223-1.054-2.702-3.245-4.23-6.126-8.594-14.428-11.775-32.394-12.8-34.304q-1.123-2.096-4.86-4.347a.59.59 0 0 1-.289-.513l.004-.589.005-1.164q.006-2.31-.011-4.478c55.034-11.643 84.54 2.304 104 2.304l.587-.004c19.466-.272 48.93-13.826 103.413-2.3a402 402 0 0 0-.011 4.478l.005 1.164.004.59a.59.59 0 0 1-.289.512q-3.737 2.252-4.86 4.347c-1.025 1.91-4.206 19.876-12.8 34.304l-.186.349c-1.462 2.709-2.871 4.766-4.044 5.777-1.728 1.489-5.38 2.356-11.074 2.98l-.522.056c-4.653.486-10.442.761-16.493.8l-.79.004c-14.234.042-25.982-1.081-29.389-3.339-2.349-1.557-4.88-5.426-7.138-10.49-7.783-15.645-3.95-28.73-16.413-28.73s-8.63 13.085-16.413 28.73M36.883 33.312c-6.662 8.668 6.121 40.33 10.988 44.512 1.374 1.18 5.88 2.028 11.774 2.549l.528.045.636.052q.396.03.8.06l.523.038q.42.03.85.056l.722.044.427.025.702.038.678.034.798.037.633.026.77.03.722.025.646.02.809.023 1.316.03.955.016.635.01.665.007.844.006.857.004 1.288-.001.782-.004.773-.007.83-.01.648-.01.72-.014.756-.016.697-.018.697-.02.928-.03.524-.02.859-.034.636-.027q.402-.019.8-.039l.582-.03.625-.034.682-.04.677-.043q.995-.066 1.947-.142l.674-.055.584-.051.77-.073.595-.06.402-.042c4.451-.479 7.823-1.166 9.173-2.059 5.882-3.887 15.028-29.615 11.34-40.41-3.69-10.797-70.605-13.066-77.267-4.398m182.234 0c-6.662-8.668-73.578-6.399-77.266 4.397s5.457 36.524 11.339 40.411c1.39.92 4.925 1.621 9.575 2.102l.595.06.77.072.584.05.674.056q.952.076 1.947.142l.677.043.682.04.625.034.582.03q.398.02.8.039l.636.027.86.035.523.019.928.03.697.02.697.018.755.016.72.014.649.01.83.01.773.007.782.004 1.288.001.857-.004.844-.006.665-.008.635-.009.955-.016 1.316-.03.809-.023.646-.02.722-.025.77-.03.633-.026.798-.037.678-.034.702-.038.427-.025.723-.044.85-.056.522-.037.8-.061.636-.052.528-.045.579-.053c5.608-.524 9.866-1.354 11.195-2.496 4.867-4.183 17.65-35.844 10.988-44.512"/></g></svg>