<svg xmlns="http://www.w3.org/2000/svg" viewBox="0 0 100 100"><style>@media (prefers-color-scheme:dark){path{fill:red}}</style><path fill="#a721a0" fill-rule="evenodd" d="M46.297 92.513a42 42 0 0 1-4.91 3.889Q36.046 100 29.284 100q-9.302 0-13.793-8.465T11 69.63q0-12.91 3.329-29.42 3.33-16.507 9.83-28.359Q30.659.001 39.642 0q5.073 0 7.98 4.709T50.529 18.2q0 12.593-6.976 29.207-6.975 16.613-18.92 32.91.742 4.338 2.432 6.19t4.44 1.852q4.333 0 7.609-2.487 2.612-1.983 6.366-6.22a291 291 0 0 1-.025-3.991q0-16.297 3.33-33.969 3.328-17.671 9.829-29.683Q65.114 0 74.204 0q4.86 0 7.873 4.18t3.013 10.846q-.001 10.688-6.236 22.17-6.236 11.481-20.293 26.826a197 197 0 0 0-.317 11.321q3.487-8.993 7.769-14.655 4.28-5.661 8.455-8.096 4.175-2.433 7.662-2.433 3.382 0 5.126 1.745Q89 53.652 89 57.037q0 2.75-1.162 10.37a234 234 0 0 0-1.692 12.223q-.633 5.767-.633 12.857 0 4.02-1.638 5.767Q82.236 100 78.535 100q-3.486 0-5.072-1.8-1.586-1.797-1.586-5.396 0-4.232 1.48-13.968 1.27-8.465 1.27-10.793 0-1.694-1.164-1.693-1.373-.001-3.91 3.544t-5.074 9.365a76 76 0 0 0-4.121 12.276q-1.162 4.973-2.696 6.719Q56.131 100 52.854 100q-3.276 0-4.81-2.38-1.162-1.808-1.747-5.107M37.822 9.375q-2.315 0-5.234 8.892-2.917 8.894-5.133 22.072-2.213 13.179-2.415 25.286 7.146-12.537 11.373-25.126 4.227-12.588 4.227-22.982 0-8.143-2.818-8.142m34.192 1.563q-1.965 0-4.363 5.49-2.4 5.491-4.637 14.822T59.36 51.563a76.1 76.1 0 0 0 11.182-16.955q4.418-9.17 4.418-16.634 0-3.41-.764-5.225-.764-1.812-2.183-1.812z"/></svg>