<svg xmlns="http://www.w3.org/2000/svg" xmlns:xlink="http://www.w3.org/1999/xlink" width="256" height="108"><defs><filter id="b" width="127.8%" height="188.2%" x="-13.9%" y="-44.1%" filterUnits="objectBoundingBox"><feOffset in="SourceAlpha" result="shadowOffsetOuter1"/><feGaussianBlur in="shadowOffsetOuter1" result="shadowBlurOuter1" stdDeviation="10"/><feColorMatrix in="shadowBlurOuter1" values="0 0 0 0 0.901960784 0 0 0 0 0.0980392157 0 0 0 0 0.501960784 0 0 0 1 0"/></filter><filter id="c" width="119.9%" height="163.2%" x="-10%" y="-31.6%" filterUnits="objectBoundingBox"><feGaussianBlur in="SourceAlpha" result="shadowBlurInner1" stdDeviation="1.5"/><feOffset in="shadowBlurInner1" result="shadowOffsetInner1"/><feComposite in="shadowOffsetInner1" in2="SourceAlpha" k2="-1" k3="1" operator="arithmetic" result="shadowInnerInner1"/><feColorMatrix in="shadowInnerInner1" values="0 0 0 0 0.901960784 0 0 0 0 0.0980392157 0 0 0 0 0.501960784 0 0 0 1 0"/></filter><path id="a" d="M232 28.706c-54.484-11.513-83.947 2.026-103.413 2.298l-.587.004c-19.46 0-48.965-13.931-104-2.302q.018 2.165.011 4.473l-.005 1.163-.003.589a.59.59 0 0 0 .288.512q3.738 2.249 4.861 4.341c1.025 1.908 4.206 19.854 12.799 34.265 1.528 2.877 3.007 5.066 4.23 6.119 1.75 1.506 5.475 2.375 11.294 3l.302.033c4.446.463 9.93.735 15.688.792l.805.007.79.003c14.234.043 25.983-1.08 29.39-3.335 2.348-1.554 4.88-5.42 7.137-10.478 7.784-15.626 3.95-28.697 16.413-28.697s8.63 13.07 16.414 28.697c2.257 5.059 4.789 8.924 7.137 10.478 3.407 2.255 15.156 3.378 29.389 3.335l.79-.003c6.051-.04 11.84-.314 16.493-.8l.522-.055c5.693-.624 9.346-1.49 11.074-2.977 1.173-1.01 2.582-3.065 4.044-5.77l.187-.35c8.593-14.41 11.774-32.356 12.798-34.264q1.124-2.093 4.862-4.341a.59.59 0 0 0 .288-.512l-.004-.589-.005-1.163q-.006-2.309.011-4.473M36.883 33.313c6.662-8.668 73.578-6.399 77.266 4.397s-5.457 36.524-11.339 40.411c-1.35.893-4.722 1.58-9.173 2.06l-.402.042-.595.06-.77.072-.584.05-.674.056q-.953.076-1.947.142l-.677.043-.682.04-.625.034-.582.03q-.398.02-.8.039l-.636.027-.86.035-.523.019-.928.03-.697.02-.697.018-.755.016-.72.014-.649.01-.83.01-.773.007-.782.004-1.288.001-.857-.004-.844-.006-.665-.008-.635-.009-.955-.016-1.316-.03-.809-.023-.646-.02-.722-.025-.77-.03-.633-.026-.798-.037-.678-.034-.702-.038-.427-.025-.723-.044-.85-.056-.522-.037-.8-.061-.636-.052-.528-.045c-5.894-.521-10.4-1.368-11.774-2.549-4.867-4.183-17.65-35.844-10.988-44.512M141.85 37.71c3.688-10.796 70.604-13.065 77.266-4.397s-6.121 40.33-10.988 44.512c-1.329 1.142-5.587 1.972-11.195 2.496l-.579.053-.528.045-.636.052q-.395.03-.8.06l-.523.038q-.42.03-.85.056l-.722.044-.427.025-.702.038-.678.034-.798.037-.633.026-.77.03-.722.025-.646.02-.809.023-1.316.03-.955.016-.635.01-.665.007-.844.006-.857.004-1.288-.001-.782-.004-.773-.007-.83-.01-.648-.01-.72-.014-.756-.016-.697-.018-.697-.02-.928-.03-.524-.02-.859-.034-.636-.027q-.402-.019-.8-.039l-.582-.03-.625-.034-.682-.04-.677-.043q-.995-.066-1.947-.142l-.674-.055-.584-.051-.77-.073-.595-.06c-4.65-.48-8.184-1.182-9.575-2.101-5.882-3.887-15.028-29.615-11.34-40.41M51.72 32.798c-6.567.757-10.985 2.089-11.65 2.952-1.896 2.467-1.26 10.467 1.814 20.317 2.581 8.266 6.573 16.642 8.428 18.554l.09.09.04.02q.107.049.27.111l.114.042c.505.181 1.203.368 2.068.548 1.81.378 4.23.703 7.105.957l.51.044.625.05.768.059.516.037.817.054.708.043.414.024.685.037.661.033.782.036.62.026.753.03.708.024.632.02.789.022 1.295.03.94.016.623.009.651.007.831.006.835.004 1.27-.001.769-.004.758-.007.816-.01.636-.01.707-.013.74-.016.685-.017.69-.02.903-.03.51-.018.843-.034.63-.027.774-.037.568-.03.61-.033.663-.04.669-.041c.646-.043 1.277-.089 1.879-.137l.653-.053.56-.05.744-.07.574-.057.393-.041c4.015-.432 6.834-1.049 7.394-1.418 1.843-1.218 5.278-7.818 7.645-15.458 2.622-8.462 3.474-16.349 2.116-20.321.019.056-.042-.028-.256-.215-.396-.346-1.013-.737-1.834-1.14-1.826-.897-4.45-1.752-7.721-2.508-6.413-1.483-14.988-2.515-24.1-2.936-8.954-.414-17.807-.207-24.73.59m127.83-.59c-9.112.421-17.687 1.453-24.1 2.936-3.27.756-5.895 1.611-7.721 2.508-.821.403-1.438.794-1.834 1.14-.214.187-.275.27-.256.215-1.358 3.972-.506 11.859 2.116 20.32 2.367 7.64 5.802 14.24 7.645 15.459.587.387 3.56 1.023 7.766 1.457l.57.057.746.07.562.05.663.054c.613.05 1.244.095 1.881.137l.66.042.666.04.611.033.575.03.775.037.62.027.845.033.518.02.902.029.684.02.684.017.74.016.708.013.635.01.816.01.759.007.764.004 1.266.001.844-.004.83-.006.654-.007.62-.009.934-.016 1.295-.03.795-.022.632-.02.707-.024.754-.029.618-.026.781-.036.662-.033.688-.037.412-.024.714-.044q.418-.026.819-.054l.515-.036.766-.058.617-.05.51-.044.567-.052c2.734-.256 5.022-.576 6.73-.944.812-.174 1.466-.354 1.938-.526q.207-.078.335-.137l.043-.021.092-.09c1.824-1.88 5.712-10.006 8.295-18.134l.133-.42c3.075-9.85 3.71-17.85 1.813-20.317-.664-.863-5.082-2.195-11.649-2.952-6.923-.797-15.776-1.004-24.73-.59m-64.355 39.704.02-.038-.206.455c-2.476 5.428-5.193 9.443-8.079 11.484l-.271.186c-4.224 2.796-15.77 4.047-31.617 4l-.804-.004-.813-.007c-5.924-.058-11.518-.34-16.07-.814l-.307-.033c-6.932-.745-10.965-1.784-13.478-3.947-1.591-1.37-3.218-3.695-4.92-6.839l-.193-.358-.46-.786a82 82 0 0 1-3.39-6.574l-.452-.994c-2.481-5.535-4.466-11.294-6.282-17.694a236 236 0 0 1-.935-3.398c-.17-.635-.666-2.506-.722-2.714a65 65 0 0 0-.509-1.833 12 12 0 0 0-.116-.37l-.022-.06-.069-.104c-.425-.605-1.416-1.458-2.986-2.43l-.283-.173a4.58 4.58 0 0 1-2.228-3.961l.003-.58.005-1.159q.007-2.286-.01-4.428a4 4 0 0 1 3.171-3.941c30.33-6.41 52.79-5.974 80.485-1.194l.138.025.144.025c.81.145 3.243.577 5.856 1.036l.543.095.942.165c1.775.31 3.509.61 4.757.82l.42.07c.332.055.617.102.844.138 4.456.699 7.791 1.035 10.671 1.035l.56-.004c2.865-.04 6.14-.39 10.512-1.086 1.221-.194 4.113-.697 6.89-1.185l.637-.113c2.96-.52 5.628-.996 5.772-1.021 27.695-4.78 50.155-5.216 80.485 1.194A4 4 0 0 1 236 28.739a391 391 0 0 0-.01 4.423l.004 1.156.004.567a4.58 4.58 0 0 1-2.224 3.98c-1.738 1.046-2.823 1.964-3.274 2.605l-.07.104-.02.06-.074.228-.043.142a65 65 0 0 0-.509 1.833c-.055.208-.551 2.079-.721 2.714a236 236 0 0 1-.935 3.398c-1.816 6.4-3.801 12.159-6.282 17.694-1.332 2.972-2.764 5.767-4.31 8.368h-.003l-.15.284c-1.638 3.03-3.2 5.304-4.733 6.705l-.22.194c-2.487 2.141-6.465 3.18-13.26 3.923l-.531.057c-4.757.496-10.661.781-16.89.821l-.797.004c-15.841.047-27.386-1.204-31.61-4-2.988-1.978-5.797-6.073-8.35-11.67l-.207-.455-.312-.639c-1.293-2.697-2.337-5.445-3.252-8.426l-.246-.82c-.404-1.37-.77-2.742-1.184-4.397-.146-.584-.782-3.187-.95-3.85-1.748-6.924-2.8-8.254-6.84-8.254-4.041 0-5.093 1.33-6.842 8.255-.167.662-.803 3.265-.95 3.849-.413 1.655-.78 3.026-1.183 4.398-.973 3.3-2.088 6.303-3.499 9.245z"/></defs><g fill="none"><use xlink:href="#a" fill="#000" filter="url(#b)"/><use xlink:href="#a" fill="#FFF"/><use xlink:href="#a" fill="#000" filter="url(#c)"/></g></svg>