<svg xmlns="http://www.w3.org/2000/svg" xmlns:xlink="http://www.w3.org/1999/xlink" viewBox="0 0 32 32"><defs><linearGradient id="c" x1="50%" x2="50%" y1="0%" y2="100%"><stop offset="0%" stop-color="#FFF"/><stop offset="100%" stop-color="#FFF" stop-opacity="0"/></linearGradient><path id="a" d="M22.801 31.852a2 2 0 0 0 1.595-.061l6.62-3.186a2.01 2.01 0 0 0 1.138-1.811v-21.6a2.01 2.01 0 0 0-1.138-1.81L24.396.198a2 2 0 0 0-2.284.389L9.44 12.149l-5.52-4.19a1.34 1.34 0 0 0-1.71.076l-1.77 1.61a1.34 1.34 0 0 0-.002 1.982l4.787 4.367-4.787 4.368a1.34 1.34 0 0 0 .001 1.981l1.77 1.61a1.34 1.34 0 0 0 1.71.077l5.52-4.19 12.674 11.562c.2.2.436.351.69.45m1.32-23.157-9.616 7.3 9.616 7.299z"/></defs><g fill="none" fill-rule="evenodd"><mask id="b" fill="#fff"><use xlink:href="#a"/></mask><path fill="#0065A9" fill-rule="nonzero" d="M31.017 3.389 24.39.199a2 2 0 0 0-2.285.388L.418 20.362a1.34 1.34 0 0 0 .001 1.981l1.772 1.61a1.34 1.34 0 0 0 1.71.077L30.02 4.216c.876-.665 2.134-.04 2.134 1.06V5.2a2.01 2.01 0 0 0-1.137-1.81" mask="url(#b)"/><path fill="#007ACC" fill-rule="nonzero" d="m31.017 28.6-6.626 3.19a2 2 0 0 1-2.285-.388L.418 11.627a1.34 1.34 0 0 1 .001-1.982l1.772-1.61a1.34 1.34 0 0 1 1.71-.076L30.02 27.772c.876.665 2.134.04 2.134-1.06v.077a2.01 2.01 0 0 1-1.137 1.811" mask="url(#b)"/><path fill="#1F9CF0" fill-rule="nonzero" d="M24.392 31.79a2 2 0 0 1-2.286-.388c.742.741 2.01.216 2.01-.833V1.42c0-1.048-1.268-1.574-2.01-.832a2 2 0 0 1 2.286-.389l6.624 3.186a2.01 2.01 0 0 1 1.138 1.81v21.6a2.01 2.01 0 0 1-1.138 1.811z" mask="url(#b)"/><g fill="url(#c)" mask="url(#b)" opacity=".25" style="mix-blend-mode:overlay"><path d="M22.781 31.852a2 2 0 0 0 1.595-.061l6.62-3.186a2.01 2.01 0 0 0 1.138-1.811v-21.6a2.01 2.01 0 0 0-1.138-1.81L24.376.198a2 2 0 0 0-2.284.389L9.42 12.149l-5.52-4.19a1.34 1.34 0 0 0-1.71.076l-1.77 1.61a1.34 1.34 0 0 0-.002 1.982l4.787 4.367-4.787 4.368a1.34 1.34 0 0 0 .001 1.981l1.77 1.61a1.34 1.34 0 0 0 1.71.077l5.52-4.19 12.674 11.562a2 2 0 0 0 .69.45m1.32-23.157-9.616 7.3 9.616 7.299z"/></g></g></svg>
